# MagicaVoxel @ Ephtracy

# group
o 

# material
mtllib fox.mtl
usemtl palette

# normals
vn -1 0 0
vn 1 0 0
vn 0 0 1
vn 0 0 -1
vn 0 -1 0
vn 0 1 0

# texcoords
vt 0.0332031 0.5
vt 0.0917969 0.5
vt 0.994141 0.5

# verts
v -0.4 0.4 0.8
v -0.4 0.4 -0.6
v -0.4 0.9 0.8
v -0.4 0.9 -0.6
v -0.3 0 0.8
v -0.3 0 0.5
v -0.3 0 -0.1
v -0.3 0 -0.4
v -0.3 0.1 0.8
v -0.3 0.1 0.7
v -0.3 0.1 -0.1
v -0.3 0.1 -0.2
v -0.3 0.4 0.7
v -0.3 0.4 0.5
v -0.3 0.4 -0.2
v -0.3 0.4 -0.4
v -0.3 0.6 0.9
v -0.3 0.6 0.8
v -0.3 0.9 0.9
v -0.3 0.9 0.8
v -0.3 1.2 0.8
v -0.3 1.2 0.7
v -0.3 1.4 0.8
v -0.3 1.4 0.7
v -0.2 0.8 1.3
v -0.2 0.8 0.9
v -0.2 0.9 0.9
v -0.2 0.9 0.7
v -0.2 1 1.3
v -0.2 1 1.2
v -0.2 1 1.1
v -0.2 1 0.9
v -0.2 1.2 1.2
v -0.2 1.2 1.1
v -0.2 1.2 0.8
v -0.2 1.2 0.7
v -0.2 1.3 1.1
v -0.2 1.3 0.8
v -0.1 0.7 -0.6
v -0.1 0.7 -0.7
v -0.1 0.8 -0.7
v -0.1 0.8 -0.8
v -0.1 0.9 -0.5
v -0.1 0.9 -0.6
v -0.1 0.9 -0.8
v -0.1 0.9 -0.9
v -0.1 1 -0.5
v -0.1 1 -0.7
v -0.1 1 -0.9
v -0.1 1 -1
v -0.1 1.1 -0.7
v -0.1 1.1 -0.8
v -0.1 1.1 -0.9
v -0.1 1.2 -0.8
v -0.1 1.2 -1
v 0.1 0 0.8
v 0.1 0 0.5
v 0.1 0 -0.1
v 0.1 0 -0.4
v 0.1 0.1 0.8
v 0.1 0.1 0.7
v 0.1 0.1 -0.1
v 0.1 0.1 -0.2
v 0.1 0.4 0.7
v 0.1 0.4 0.5
v 0.1 0.4 -0.2
v 0.1 0.4 -0.4
v 0.1 1 1.2
v 0.1 1 1.1
v 0.1 1.2 1.2
v 0.1 1.2 1.1
v 0.1 1.3 0.8
v 0.1 1.3 0.7
v 0.1 1.4 0.8
v 0.1 1.4 0.7
v -0.1 0 0.8
v -0.1 0 0.5
v -0.1 0 -0.1
v -0.1 0 -0.4
v -0.1 0.1 0.8
v -0.1 0.1 0.7
v -0.1 0.1 -0.1
v -0.1 0.1 -0.2
v -0.1 0.4 0.7
v -0.1 0.4 0.5
v -0.1 0.4 -0.2
v -0.1 0.4 -0.4
v -0.1 1 1.2
v -0.1 1 1.1
v -0.1 1.2 1.2
v -0.1 1.2 1.1
v -0.1 1.3 0.8
v -0.1 1.3 0.7
v -0.1 1.4 0.8
v -0.1 1.4 0.7
v 0.1 0.7 -0.6
v 0.1 0.7 -0.7
v 0.1 0.8 -0.7
v 0.1 0.8 -0.8
v 0.1 0.9 -0.5
v 0.1 0.9 -0.6
v 0.1 0.9 -0.8
v 0.1 0.9 -0.9
v 0.1 1 -0.5
v 0.1 1 -0.7
v 0.1 1 -0.9
v 0.1 1 -1
v 0.1 1.1 -0.7
v 0.1 1.1 -0.8
v 0.1 1.1 -0.9
v 0.1 1.2 -0.8
v 0.1 1.2 -1
v 0.2 0.8 1.3
v 0.2 0.8 0.9
v 0.2 0.9 0.9
v 0.2 0.9 0.7
v 0.2 1 1.3
v 0.2 1 1.2
v 0.2 1 1.1
v 0.2 1 0.9
v 0.2 1.2 1.2
v 0.2 1.2 1.1
v 0.2 1.2 0.8
v 0.2 1.2 0.7
v 0.2 1.3 1.1
v 0.2 1.3 0.8
v 0.3 0 0.8
v 0.3 0 0.5
v 0.3 0 -0.1
v 0.3 0 -0.4
v 0.3 0.1 0.8
v 0.3 0.1 0.7
v 0.3 0.1 -0.1
v 0.3 0.1 -0.2
v 0.3 0.4 0.7
v 0.3 0.4 0.5
v 0.3 0.4 -0.2
v 0.3 0.4 -0.4
v 0.3 0.6 0.9
v 0.3 0.6 0.8
v 0.3 0.9 0.9
v 0.3 0.9 0.8
v 0.3 1.2 0.8
v 0.3 1.2 0.7
v 0.3 1.4 0.8
v 0.3 1.4 0.7
v 0.4 0.4 0.8
v 0.4 0.4 -0.6
v 0.4 0.9 0.8
v 0.4 0.9 -0.6
v -0.2 0.8 1.3
v -0.2 1 1.3
v -0.1 0.9 1.3
v -0.1 1 1.3
v 0.1 0.9 1.3
v 0.1 1 1.3
v 0.2 0.8 1.3
v 0.2 1 1.3
v -0.2 1 1.2
v -0.2 1.2 1.2
v -0.1 1 1.2
v -0.1 1.2 1.2
v 0.1 1 1.2
v 0.1 1.2 1.2
v 0.2 1 1.2
v 0.2 1.2 1.2
v -0.2 1.2 1.1
v -0.2 1.3 1.1
v -0.1 1 1.1
v -0.1 1.2 1.1
v 0.1 1 1.1
v 0.1 1.2 1.1
v 0.2 1.2 1.1
v 0.2 1.3 1.1
v -0.3 0.6 0.9
v -0.3 0.9 0.9
v -0.2 0.8 0.9
v -0.2 0.9 0.9
v 0.2 0.8 0.9
v 0.2 0.9 0.9
v 0.3 0.6 0.9
v 0.3 0.9 0.9
v -0.4 0.4 0.8
v -0.4 0.9 0.8
v -0.3 0 0.8
v -0.3 0.1 0.8
v -0.3 0.6 0.8
v -0.3 0.9 0.8
v -0.3 1.2 0.8
v -0.3 1.4 0.8
v -0.2 1.2 0.8
v -0.2 1.3 0.8
v -0.1 0 0.8
v -0.1 0.1 0.8
v -0.1 1.3 0.8
v -0.1 1.4 0.8
v 0.1 0 0.8
v 0.1 0.1 0.8
v 0.1 1.3 0.8
v 0.1 1.4 0.8
v 0.2 1.2 0.8
v 0.2 1.3 0.8
v 0.3 0 0.8
v 0.3 0.1 0.8
v 0.3 0.6 0.8
v 0.3 0.9 0.8
v 0.3 1.2 0.8
v 0.3 1.4 0.8
v 0.4 0.4 0.8
v 0.4 0.9 0.8
v -0.3 0.1 0.7
v -0.3 0.4 0.7
v -0.1 0.1 0.7
v -0.1 0.4 0.7
v 0.1 0.1 0.7
v 0.1 0.4 0.7
v 0.3 0.1 0.7
v 0.3 0.4 0.7
v -0.3 0 -0.1
v -0.3 0.1 -0.1
v -0.1 0 -0.1
v -0.1 0.1 -0.1
v 0.1 0 -0.1
v 0.1 0.1 -0.1
v 0.3 0 -0.1
v 0.3 0.1 -0.1
v -0.3 0.1 -0.2
v -0.3 0.4 -0.2
v -0.1 0.1 -0.2
v -0.1 0.4 -0.2
v 0.1 0.1 -0.2
v 0.1 0.4 -0.2
v 0.3 0.1 -0.2
v 0.3 0.4 -0.2
v -0.1 0.9 -0.5
v -0.1 1 -0.5
v 0.1 0.9 -0.5
v 0.1 1 -0.5
v -0.1 1 -0.7
v -0.1 1.1 -0.7
v 0.1 1 -0.7
v 0.1 1.1 -0.7
v -0.1 1.1 -0.8
v -0.1 1.2 -0.8
v 0.1 1.1 -0.8
v 0.1 1.2 -0.8
v -0.3 1.2 0.7
v -0.3 1.4 0.7
v -0.2 0.9 0.7
v -0.2 1.2 0.7
v -0.1 1.3 0.7
v -0.1 1.4 0.7
v 0.1 1.3 0.7
v 0.1 1.4 0.7
v 0.2 0.9 0.7
v 0.2 1.2 0.7
v 0.3 1.2 0.7
v 0.3 1.4 0.7
v -0.3 0 0.5
v -0.3 0.4 0.5
v -0.1 0 0.5
v -0.1 0.4 0.5
v 0.1 0 0.5
v 0.1 0.4 0.5
v 0.3 0 0.5
v 0.3 0.4 0.5
v -0.3 0 -0.4
v -0.3 0.4 -0.4
v -0.1 0 -0.4
v -0.1 0.4 -0.4
v 0.1 0 -0.4
v 0.1 0.4 -0.4
v 0.3 0 -0.4
v 0.3 0.4 -0.4
v -0.4 0.4 -0.6
v -0.4 0.9 -0.6
v -0.1 0.7 -0.6
v -0.1 0.9 -0.6
v 0.1 0.7 -0.6
v 0.1 0.9 -0.6
v 0.4 0.4 -0.6
v 0.4 0.9 -0.6
v -0.1 0.7 -0.7
v -0.1 0.8 -0.7
v 0.1 0.7 -0.7
v 0.1 0.8 -0.7
v -0.1 0.8 -0.8
v -0.1 0.9 -0.8
v 0.1 0.8 -0.8
v 0.1 0.9 -0.8
v -0.1 0.9 -0.9
v -0.1 1 -0.9
v 0.1 0.9 -0.9
v 0.1 1 -0.9
v -0.1 1 -1
v -0.1 1.2 -1
v 0.1 1 -1
v 0.1 1.2 -1
v -0.3 0 0.8
v -0.1 0 0.8
v 0.1 0 0.8
v 0.3 0 0.8
v -0.3 0 0.5
v -0.1 0 0.5
v 0.1 0 0.5
v 0.3 0 0.5
v -0.3 0 -0.1
v -0.1 0 -0.1
v 0.1 0 -0.1
v 0.3 0 -0.1
v -0.3 0 -0.4
v -0.1 0 -0.4
v 0.1 0 -0.4
v 0.3 0 -0.4
v -0.4 0.4 0.8
v 0.4 0.4 0.8
v -0.3 0.4 0.7
v -0.1 0.4 0.7
v 0.1 0.4 0.7
v 0.3 0.4 0.7
v -0.3 0.4 0.5
v -0.1 0.4 0.5
v 0.1 0.4 0.5
v 0.3 0.4 0.5
v -0.3 0.4 -0.2
v -0.1 0.4 -0.2
v 0.1 0.4 -0.2
v 0.3 0.4 -0.2
v -0.3 0.4 -0.4
v -0.1 0.4 -0.4
v 0.1 0.4 -0.4
v 0.3 0.4 -0.4
v -0.4 0.4 -0.6
v 0.4 0.4 -0.6
v -0.3 0.6 0.9
v 0.3 0.6 0.9
v -0.3 0.6 0.8
v 0.3 0.6 0.8
v -0.1 0.7 -0.6
v 0.1 0.7 -0.6
v -0.1 0.7 -0.7
v 0.1 0.7 -0.7
v -0.2 0.8 1.3
v 0.2 0.8 1.3
v -0.2 0.8 0.9
v 0.2 0.8 0.9
v -0.1 0.8 -0.7
v 0.1 0.8 -0.7
v -0.1 0.8 -0.8
v 0.1 0.8 -0.8
v -0.1 0.9 -0.8
v 0.1 0.9 -0.8
v -0.1 0.9 -0.9
v 0.1 0.9 -0.9
v -0.1 1 -0.9
v 0.1 1 -0.9
v -0.1 1 -1
v 0.1 1 -1
v -0.3 1.2 0.8
v -0.2 1.2 0.8
v 0.2 1.2 0.8
v 0.3 1.2 0.8
v -0.3 1.2 0.7
v -0.2 1.2 0.7
v 0.2 1.2 0.7
v 0.3 1.2 0.7
v -0.3 0.1 0.8
v -0.1 0.1 0.8
v 0.1 0.1 0.8
v 0.3 0.1 0.8
v -0.3 0.1 0.7
v -0.1 0.1 0.7
v 0.1 0.1 0.7
v 0.3 0.1 0.7
v -0.3 0.1 -0.1
v -0.1 0.1 -0.1
v 0.1 0.1 -0.1
v 0.3 0.1 -0.1
v -0.3 0.1 -0.2
v -0.1 0.1 -0.2
v 0.1 0.1 -0.2
v 0.3 0.1 -0.2
v -0.3 0.9 0.9
v -0.2 0.9 0.9
v 0.2 0.9 0.9
v 0.3 0.9 0.9
v -0.4 0.9 0.8
v -0.3 0.9 0.8
v 0.3 0.9 0.8
v 0.4 0.9 0.8
v -0.2 0.9 0.7
v 0.2 0.9 0.7
v -0.1 0.9 -0.5
v 0.1 0.9 -0.5
v -0.4 0.9 -0.6
v -0.1 0.9 -0.6
v 0.1 0.9 -0.6
v 0.4 0.9 -0.6
v -0.2 1 1.3
v -0.1 1 1.3
v 0.1 1 1.3
v 0.2 1 1.3
v -0.2 1 1.2
v -0.1 1 1.2
v 0.1 1 1.2
v 0.2 1 1.2
v -0.1 1 1.1
v 0.1 1 1.1
v -0.1 1 -0.5
v 0.1 1 -0.5
v -0.1 1 -0.7
v 0.1 1 -0.7
v -0.1 1.1 -0.7
v 0.1 1.1 -0.7
v -0.1 1.1 -0.8
v 0.1 1.1 -0.8
v -0.2 1.2 1.2
v -0.1 1.2 1.2
v 0.1 1.2 1.2
v 0.2 1.2 1.2
v -0.2 1.2 1.1
v -0.1 1.2 1.1
v 0.1 1.2 1.1
v 0.2 1.2 1.1
v -0.1 1.2 -0.8
v 0.1 1.2 -0.8
v -0.1 1.2 -1
v 0.1 1.2 -1
v -0.2 1.3 1.1
v 0.2 1.3 1.1
v -0.2 1.3 0.8
v -0.1 1.3 0.8
v 0.1 1.3 0.8
v 0.2 1.3 0.8
v -0.1 1.3 0.7
v 0.1 1.3 0.7
v -0.3 1.4 0.8
v -0.1 1.4 0.8
v 0.1 1.4 0.8
v 0.3 1.4 0.8
v -0.3 1.4 0.7
v -0.1 1.4 0.7
v 0.1 1.4 0.7
v 0.3 1.4 0.7

# faces
f 3/2/1 2/2/1 1/2/1
f 4/2/1 2/2/1 3/2/1
f 9/2/1 6/2/1 5/2/1
f 10/2/1 6/2/1 9/2/1
f 11/2/1 8/2/1 7/2/1
f 12/2/1 8/2/1 11/2/1
f 13/2/1 6/2/1 10/2/1
f 14/2/1 6/2/1 13/2/1
f 15/2/1 8/2/1 12/2/1
f 16/2/1 8/2/1 15/2/1
f 19/2/1 18/2/1 17/2/1
f 20/2/1 18/2/1 19/2/1
f 23/2/1 22/2/1 21/2/1
f 24/2/1 22/2/1 23/2/1
f 27/1/1 26/1/1 25/1/1
f 29/1/1 27/1/1 25/1/1
f 30/1/1 27/1/1 29/1/1
f 31/1/1 27/1/1 30/1/1
f 32/2/1 28/2/1 27/2/1
f 32/1/1 27/1/1 31/1/1
f 33/3/1 31/3/1 30/3/1
f 34/2/1 32/2/1 31/2/1
f 34/3/1 31/3/1 33/3/1
f 35/2/1 28/2/1 32/2/1
f 35/2/1 32/2/1 34/2/1
f 36/2/1 28/2/1 35/2/1
f 37/2/1 35/2/1 34/2/1
f 38/2/1 35/2/1 37/2/1
f 41/2/1 40/2/1 39/2/1
f 44/2/1 41/2/1 39/2/1
f 45/1/1 42/1/1 41/1/1
f 47/2/1 44/2/1 43/2/1
f 48/1/1 46/1/1 45/1/1
f 48/2/1 44/2/1 47/2/1
f 48/2/1 41/2/1 44/2/1
f 48/1/1 45/1/1 41/1/1
f 49/1/1 46/1/1 48/1/1
f 51/1/1 49/1/1 48/1/1
f 52/1/1 49/1/1 51/1/1
f 53/3/1 50/3/1 49/3/1
f 53/1/1 49/1/1 52/1/1
f 54/3/1 53/3/1 52/3/1
f 55/3/1 50/3/1 53/3/1
f 55/3/1 53/3/1 54/3/1
f 60/2/1 57/2/1 56/2/1
f 61/2/1 57/2/1 60/2/1
f 62/2/1 59/2/1 58/2/1
f 63/2/1 59/2/1 62/2/1
f 64/2/1 57/2/1 61/2/1
f 65/2/1 57/2/1 64/2/1
f 66/2/1 59/2/1 63/2/1
f 67/2/1 59/2/1 66/2/1
f 70/3/1 69/3/1 68/3/1
f 71/3/1 69/3/1 70/3/1
f 74/2/1 73/2/1 72/2/1
f 75/2/1 73/2/1 74/2/1
f 76/2/2 77/2/2 80/2/2
f 80/2/2 77/2/2 81/2/2
f 78/2/2 79/2/2 82/2/2
f 82/2/2 79/2/2 83/2/2
f 81/2/2 77/2/2 84/2/2
f 84/2/2 77/2/2 85/2/2
f 83/2/2 79/2/2 86/2/2
f 86/2/2 79/2/2 87/2/2
f 88/3/2 89/3/2 90/3/2
f 90/3/2 89/3/2 91/3/2
f 92/2/2 93/2/2 94/2/2
f 94/2/2 93/2/2 95/2/2
f 96/2/2 97/2/2 98/2/2
f 96/2/2 98/2/2 101/2/2
f 98/1/2 99/1/2 102/1/2
f 100/2/2 101/2/2 104/2/2
f 102/1/2 103/1/2 105/1/2
f 104/2/2 101/2/2 105/2/2
f 101/2/2 98/2/2 105/2/2
f 98/1/2 102/1/2 105/1/2
f 105/1/2 103/1/2 106/1/2
f 105/1/2 106/1/2 108/1/2
f 108/1/2 106/1/2 109/1/2
f 106/3/2 107/3/2 110/3/2
f 109/1/2 106/1/2 110/1/2
f 109/3/2 110/3/2 111/3/2
f 110/3/2 107/3/2 112/3/2
f 111/3/2 110/3/2 112/3/2
f 113/1/2 114/1/2 115/1/2
f 113/1/2 115/1/2 117/1/2
f 117/1/2 115/1/2 118/1/2
f 118/1/2 115/1/2 119/1/2
f 115/2/2 116/2/2 120/2/2
f 119/1/2 115/1/2 120/1/2
f 118/3/2 119/3/2 121/3/2
f 119/2/2 120/2/2 122/2/2
f 121/3/2 119/3/2 122/3/2
f 120/2/2 116/2/2 123/2/2
f 122/2/2 120/2/2 123/2/2
f 123/2/2 116/2/2 124/2/2
f 122/2/2 123/2/2 125/2/2
f 125/2/2 123/2/2 126/2/2
f 127/2/2 128/2/2 131/2/2
f 131/2/2 128/2/2 132/2/2
f 129/2/2 130/2/2 133/2/2
f 133/2/2 130/2/2 134/2/2
f 132/2/2 128/2/2 135/2/2
f 135/2/2 128/2/2 136/2/2
f 134/2/2 130/2/2 137/2/2
f 137/2/2 130/2/2 138/2/2
f 139/2/2 140/2/2 141/2/2
f 141/2/2 140/2/2 142/2/2
f 143/2/2 144/2/2 145/2/2
f 145/2/2 144/2/2 146/2/2
f 147/2/2 148/2/2 149/2/2
f 149/2/2 148/2/2 150/2/2
f 153/1/3 152/1/3 151/1/3
f 154/1/3 152/1/3 153/1/3
f 155/1/3 153/1/3 151/1/3
f 155/3/3 154/3/3 153/3/3
f 156/3/3 154/3/3 155/3/3
f 157/1/3 155/1/3 151/1/3
f 157/1/3 156/1/3 155/1/3
f 158/1/3 156/1/3 157/1/3
f 161/3/3 160/3/3 159/3/3
f 162/3/3 160/3/3 161/3/3
f 165/3/3 164/3/3 163/3/3
f 166/3/3 164/3/3 165/3/3
f 170/2/3 168/2/3 167/2/3
f 171/2/3 170/2/3 169/2/3
f 172/2/3 168/2/3 170/2/3
f 172/2/3 170/2/3 171/2/3
f 173/2/3 168/2/3 172/2/3
f 174/2/3 168/2/3 173/2/3
f 177/2/3 176/2/3 175/2/3
f 178/2/3 176/2/3 177/2/3
f 179/2/3 177/2/3 175/2/3
f 181/2/3 179/2/3 175/2/3
f 181/2/3 180/2/3 179/2/3
f 182/2/3 180/2/3 181/2/3
f 187/2/3 184/2/3 183/2/3
f 188/2/3 184/2/3 187/2/3
f 191/2/3 190/2/3 189/2/3
f 192/2/3 190/2/3 191/2/3
f 193/2/3 186/2/3 185/2/3
f 194/2/3 186/2/3 193/2/3
f 195/2/3 190/2/3 192/2/3
f 196/2/3 190/2/3 195/2/3
f 202/2/3 200/2/3 199/2/3
f 203/2/3 198/2/3 197/2/3
f 204/2/3 198/2/3 203/2/3
f 205/2/3 187/2/3 183/2/3
f 207/2/3 202/2/3 201/2/3
f 208/2/3 200/2/3 202/2/3
f 208/2/3 202/2/3 207/2/3
f 209/2/3 206/2/3 205/2/3
f 209/2/3 205/2/3 183/2/3
f 210/2/3 206/2/3 209/2/3
f 213/2/3 212/2/3 211/2/3
f 214/2/3 212/2/3 213/2/3
f 217/2/3 216/2/3 215/2/3
f 218/2/3 216/2/3 217/2/3
f 221/2/3 220/2/3 219/2/3
f 222/2/3 220/2/3 221/2/3
f 225/2/3 224/2/3 223/2/3
f 226/2/3 224/2/3 225/2/3
f 229/2/3 228/2/3 227/2/3
f 230/2/3 228/2/3 229/2/3
f 233/2/3 232/2/3 231/2/3
f 234/2/3 232/2/3 233/2/3
f 237/2/3 236/2/3 235/2/3
f 238/2/3 236/2/3 237/2/3
f 241/1/3 240/1/3 239/1/3
f 242/1/3 240/1/3 241/1/3
f 245/3/3 244/3/3 243/3/3
f 246/3/3 244/3/3 245/3/3
f 247/2/4 248/2/4 250/2/4
f 250/2/4 248/2/4 251/2/4
f 249/2/4 250/2/4 251/2/4
f 251/2/4 248/2/4 252/2/4
f 249/2/4 251/2/4 253/2/4
f 249/2/4 253/2/4 255/2/4
f 253/2/4 254/2/4 255/2/4
f 255/2/4 254/2/4 256/2/4
f 256/2/4 254/2/4 257/2/4
f 257/2/4 254/2/4 258/2/4
f 259/2/4 260/2/4 261/2/4
f 261/2/4 260/2/4 262/2/4
f 263/2/4 264/2/4 265/2/4
f 265/2/4 264/2/4 266/2/4
f 267/2/4 268/2/4 269/2/4
f 269/2/4 268/2/4 270/2/4
f 271/2/4 272/2/4 273/2/4
f 273/2/4 272/2/4 274/2/4
f 275/2/4 276/2/4 277/2/4
f 277/2/4 276/2/4 278/2/4
f 275/2/4 277/2/4 279/2/4
f 275/2/4 279/2/4 281/2/4
f 279/2/4 280/2/4 281/2/4
f 281/2/4 280/2/4 282/2/4
f 283/2/4 284/2/4 285/2/4
f 285/2/4 284/2/4 286/2/4
f 287/1/4 288/1/4 289/1/4
f 289/1/4 288/1/4 290/1/4
f 291/1/4 292/1/4 293/1/4
f 293/1/4 292/1/4 294/1/4
f 295/3/4 296/3/4 297/3/4
f 297/3/4 296/3/4 298/3/4
f 303/2/5 300/2/5 299/2/5
f 304/2/5 300/2/5 303/2/5
f 305/2/5 302/2/5 301/2/5
f 306/2/5 302/2/5 305/2/5
f 311/2/5 308/2/5 307/2/5
f 312/2/5 308/2/5 311/2/5
f 313/2/5 310/2/5 309/2/5
f 314/2/5 310/2/5 313/2/5
f 317/2/5 316/2/5 315/2/5
f 318/2/5 316/2/5 317/2/5
f 319/2/5 316/2/5 318/2/5
f 320/2/5 316/2/5 319/2/5
f 321/2/5 317/2/5 315/2/5
f 322/2/5 319/2/5 318/2/5
f 323/2/5 319/2/5 322/2/5
f 324/2/5 316/2/5 320/2/5
f 325/2/5 323/2/5 322/2/5
f 325/2/5 324/2/5 323/2/5
f 325/2/5 321/2/5 315/2/5
f 325/2/5 322/2/5 321/2/5
f 326/2/5 324/2/5 325/2/5
f 327/2/5 324/2/5 326/2/5
f 328/2/5 316/2/5 324/2/5
f 328/2/5 324/2/5 327/2/5
f 329/2/5 325/2/5 315/2/5
f 330/2/5 327/2/5 326/2/5
f 331/2/5 327/2/5 330/2/5
f 332/2/5 316/2/5 328/2/5
f 333/2/5 329/2/5 315/2/5
f 333/2/5 332/2/5 331/2/5
f 333/2/5 331/2/5 330/2/5
f 333/2/5 330/2/5 329/2/5
f 334/2/5 316/2/5 332/2/5
f 334/2/5 332/2/5 333/2/5
f 337/2/5 336/2/5 335/2/5
f 338/2/5 336/2/5 337/2/5
f 341/2/5 340/2/5 339/2/5
f 342/2/5 340/2/5 341/2/5
f 345/1/5 344/1/5 343/1/5
f 346/1/5 344/1/5 345/1/5
f 349/1/5 348/1/5 347/1/5
f 350/1/5 348/1/5 349/1/5
f 353/1/5 352/1/5 351/1/5
f 354/1/5 352/1/5 353/1/5
f 357/3/5 356/3/5 355/3/5
f 358/3/5 356/3/5 357/3/5
f 363/2/5 360/2/5 359/2/5
f 364/2/5 360/2/5 363/2/5
f 365/2/5 362/2/5 361/2/5
f 366/2/5 362/2/5 365/2/5
f 367/2/6 368/2/6 371/2/6
f 371/2/6 368/2/6 372/2/6
f 369/2/6 370/2/6 373/2/6
f 373/2/6 370/2/6 374/2/6
f 375/2/6 376/2/6 379/2/6
f 379/2/6 376/2/6 380/2/6
f 377/2/6 378/2/6 381/2/6
f 381/2/6 378/2/6 382/2/6
f 383/2/6 384/2/6 388/2/6
f 385/2/6 386/2/6 389/2/6
f 387/2/6 388/2/6 391/2/6
f 388/2/6 384/2/6 391/2/6
f 389/2/6 390/2/6 392/2/6
f 385/2/6 389/2/6 392/2/6
f 391/2/6 392/2/6 393/2/6
f 393/2/6 392/2/6 394/2/6
f 387/2/6 391/2/6 395/2/6
f 391/2/6 393/2/6 395/2/6
f 395/2/6 393/2/6 396/2/6
f 394/2/6 392/2/6 397/2/6
f 392/2/6 390/2/6 398/2/6
f 397/2/6 392/2/6 398/2/6
f 399/1/6 400/1/6 403/1/6
f 400/3/6 401/3/6 404/3/6
f 403/1/6 400/1/6 404/1/6
f 401/1/6 402/1/6 405/1/6
f 404/3/6 401/3/6 405/3/6
f 405/1/6 402/1/6 406/1/6
f 404/1/6 405/1/6 407/1/6
f 407/1/6 405/1/6 408/1/6
f 409/2/6 410/2/6 411/2/6
f 411/2/6 410/2/6 412/2/6
f 413/1/6 414/1/6 415/1/6
f 415/1/6 414/1/6 416/1/6
f 417/3/6 418/3/6 421/3/6
f 421/3/6 418/3/6 422/3/6
f 419/3/6 420/3/6 423/3/6
f 423/3/6 420/3/6 424/3/6
f 425/3/6 426/3/6 427/3/6
f 427/3/6 426/3/6 428/3/6
f 429/2/6 430/2/6 431/2/6
f 431/2/6 430/2/6 432/2/6
f 432/2/6 430/2/6 433/2/6
f 433/2/6 430/2/6 434/2/6
f 432/2/6 433/2/6 435/2/6
f 435/2/6 433/2/6 436/2/6
f 437/2/6 438/2/6 441/2/6
f 441/2/6 438/2/6 442/2/6
f 439/2/6 440/2/6 443/2/6
f 443/2/6 440/2/6 444/2/6
