# MagicaVoxel @ Ephtracy

# group
o 

# material
mtllib crystal-3.mtl
usemtl palette

# normals
vn -1 0 0
vn 1 0 0
vn 0 0 1
vn 0 0 -1
vn 0 -1 0
vn 0 1 0

# texcoords
vt 0.841797 0.5

# verts
v -0.2 2.2 -0.4
v -0.2 2.2 -0.5
v -0.2 2.3 -0.5
v -0.2 2.3 -0.6
v -0.2 2.5 -0.6
v -0.2 2.5 -0.7
v -0.2 2.6 -0.4
v -0.2 2.6 -0.5
v -0.2 2.7 -0.7
v -0.2 2.7 -0.8
v -0.2 2.8 -0.5
v -0.2 2.8 -0.6
v -0.2 2.9 -0.8
v -0.2 2.9 -0.9
v -0.2 3 -0.6
v -0.2 3 -0.9
v -0.1 2.1 -0.3
v -0.1 2.1 -0.5
v -0.1 2.2 -0.4
v -0.1 2.2 -0.5
v -0.1 2.6 -0.4
v -0.1 2.6 -0.5
v -0.1 2.7 -0.3
v -0.1 2.7 -0.4
v -0.1 2.8 -0.5
v -0.1 2.8 -0.6
v -0.1 2.9 -0.4
v -0.1 2.9 -0.5
v -0.1 3 -0.6
v -0.1 3 -0.9
v -0.1 3.1 -0.5
v -0.1 3.1 -0.9
v 0 2 -0.2
v 0 2 -0.4
v 0 2.1 -0.3
v 0 2.1 -0.4
v 0 2.6 -0.2
v 0 2.6 -0.3
v 0 2.7 -0.3
v 0 2.7 -0.4
v 0 2.8 -0.3
v 0 2.8 -0.4
v 0 2.9 -0.4
v 0 2.9 -0.5
v 0 3 -0.4
v 0 3 -0.5
v 0 3.1 -0.6
v 0 3.1 -0.9
v 0 3.2 -0.8
v 0 3.2 -0.9
v 0 3.3 -0.7
v 0 3.3 -0.8
v 0 3.4 -0.6
v 0 3.4 -0.7
v 0.1 1.9 -0.3
v 0.1 1.9 -0.4
v 0.1 2 -0.3
v 0.1 2 -0.4
v 0.1 2.1 -0.1
v 0.1 2.1 -0.2
v 0.1 2.4 -0.1
v 0.1 2.4 -0.2
v 0.1 3.1 -0.5
v 0.1 3.1 -0.6
v 0.1 3.4 -0.6
v 0.1 3.5 -0.5
v 0.1 3.5 -0.6
v 0.2 3.1 -0.4
v 0.2 3.1 -0.5
v 0.2 3.4 -0.4
v 0.2 3.4 -0.5
v 0.3 2.4 0.3
v 0.3 2.4 -0.1
v 0.3 2.4 -0.2
v 0.3 2.6 -0.2
v 0.3 2.6 -0.3
v 0.3 2.7 0
v 0.3 2.7 -0.3
v 0.3 2.8 0.3
v 0.3 2.8 0
v 0.4 2.3 0.4
v 0.4 2.3 -0.1
v 0.4 2.4 0.3
v 0.4 2.4 -0.1
v 0.4 2.7 0
v 0.4 2.7 -0.3
v 0.4 2.8 0.3
v 0.4 2.8 0
v 0.4 2.8 -0.3
v 0.4 2.9 0.4
v 0.4 2.9 0
v 0.4 3 0
v 0.4 3 -0.3
v 0.5 2.4 0.5
v 0.5 2.4 0.4
v 0.5 2.8 0.5
v 0.5 2.8 0.4
v 0.5 2.8 -0.3
v 0.5 2.8 -0.4
v 0.5 2.9 0.3
v 0.5 2.9 0
v 0.5 3 0.3
v 0.5 3 0.1
v 0.5 3 0
v 0.5 3 -0.3
v 0.5 3 -0.4
v 0.5 3 -0.5
v 0.5 3.1 0.1
v 0.5 3.1 -0.4
v 0.5 3.1 -0.5
v 0.5 3.4 -0.4
v 0.5 3.4 -0.5
v 0.5 3.5 -0.4
v 0.5 3.5 -0.5
v 0.6 3.1 0
v 0.6 3.1 -0.4
v 0.6 3.2 0
v 0.6 3.2 -0.3
v 0.6 3.4 -0.3
v 0.6 3.4 -0.4
v 0.4 1.9 -0.3
v 0.4 1.9 -0.4
v 0.4 2 -0.2
v 0.4 2 -0.3
v 0.4 2.1 -0.2
v 0.4 2.1 -0.4
v 0.5 2.1 -0.1
v 0.5 2.1 -0.5
v 0.5 2.3 -0.1
v 0.5 2.3 -0.5
v 0.6 2.3 0.4
v 0.6 2.3 -0.6
v 0.6 2.4 0.5
v 0.6 2.4 0.4
v 0.6 2.5 0.5
v 0.6 2.5 -0.6
v 0.6 3.4 -0.4
v 0.6 3.4 -0.6
v 0.6 3.5 -0.4
v 0.6 3.5 -0.6
v 0.7 2.5 0.5
v 0.7 2.5 -0.7
v 0.7 2.7 0.5
v 0.7 2.7 -0.7
v 0.7 3.3 -0.3
v 0.7 3.3 -0.7
v 0.7 3.4 -0.3
v 0.7 3.4 -0.7
v 0.8 2.7 0.5
v 0.8 2.7 -0.8
v 0.8 2.8 0.5
v 0.8 2.8 0.4
v 0.8 2.9 0.4
v 0.8 2.9 0.3
v 0.8 2.9 0.2
v 0.8 2.9 -0.8
v 0.8 3 0.3
v 0.8 3 0.2
v 0.8 3.2 -0.3
v 0.8 3.2 -0.8
v 0.8 3.3 -0.3
v 0.8 3.3 -0.8
v 0.9 2.9 0.2
v 0.9 2.9 -0.9
v 0.9 3 0.2
v 0.9 3 0.1
v 0.9 3.1 0.1
v 0.9 3.1 0
v 0.9 3.2 0
v 0.9 3.2 -0.9
v 0.5 2.4 0.5
v 0.5 2.8 0.5
v 0.6 2.4 0.5
v 0.6 2.5 0.5
v 0.7 2.5 0.5
v 0.7 2.7 0.5
v 0.8 2.7 0.5
v 0.8 2.8 0.5
v 0.4 2.3 0.4
v 0.4 2.9 0.4
v 0.5 2.4 0.4
v 0.5 2.8 0.4
v 0.6 2.3 0.4
v 0.6 2.4 0.4
v 0.8 2.8 0.4
v 0.8 2.9 0.4
v 0.3 2.4 0.3
v 0.3 2.8 0.3
v 0.4 2.4 0.3
v 0.4 2.8 0.3
v 0.5 2.9 0.3
v 0.5 3 0.3
v 0.8 2.9 0.3
v 0.8 3 0.3
v 0.8 2.9 0.2
v 0.8 3 0.2
v 0.9 2.9 0.2
v 0.9 3 0.2
v 0.5 3 0.1
v 0.5 3.1 0.1
v 0.9 3 0.1
v 0.9 3.1 0.1
v 0.4 2.9 0
v 0.4 3 0
v 0.5 2.9 0
v 0.5 3 0
v 0.6 3.1 0
v 0.6 3.2 0
v 0.9 3.1 0
v 0.9 3.2 0
v 0.1 2.1 -0.1
v 0.1 2.4 -0.1
v 0.3 2.4 -0.1
v 0.4 2.3 -0.1
v 0.4 2.4 -0.1
v 0.5 2.1 -0.1
v 0.5 2.3 -0.1
v 0 2 -0.2
v 0 2.6 -0.2
v 0.1 2.1 -0.2
v 0.1 2.4 -0.2
v 0.3 2.4 -0.2
v 0.3 2.6 -0.2
v 0.4 2 -0.2
v 0.4 2.1 -0.2
v -0.1 2.1 -0.3
v -0.1 2.7 -0.3
v 0 2.1 -0.3
v 0 2.6 -0.3
v 0 2.7 -0.3
v 0 2.8 -0.3
v 0.1 1.9 -0.3
v 0.1 2 -0.3
v 0.3 2.6 -0.3
v 0.3 2.7 -0.3
v 0.4 1.9 -0.3
v 0.4 2 -0.3
v 0.4 2.7 -0.3
v 0.4 2.8 -0.3
v 0.6 3.2 -0.3
v 0.6 3.4 -0.3
v 0.7 3.3 -0.3
v 0.7 3.4 -0.3
v 0.8 3.2 -0.3
v 0.8 3.3 -0.3
v -0.2 2.2 -0.4
v -0.2 2.6 -0.4
v -0.1 2.2 -0.4
v -0.1 2.6 -0.4
v -0.1 2.7 -0.4
v -0.1 2.9 -0.4
v 0 2.7 -0.4
v 0 2.8 -0.4
v 0 2.9 -0.4
v 0 3 -0.4
v 0.2 3.1 -0.4
v 0.2 3.4 -0.4
v 0.5 2.8 -0.4
v 0.5 3 -0.4
v 0.5 3.1 -0.4
v 0.5 3.4 -0.4
v 0.5 3.5 -0.4
v 0.6 3.1 -0.4
v 0.6 3.4 -0.4
v 0.6 3.5 -0.4
v -0.2 2.6 -0.5
v -0.2 2.8 -0.5
v -0.1 2.6 -0.5
v -0.1 2.8 -0.5
v -0.1 2.9 -0.5
v -0.1 3.1 -0.5
v 0 2.9 -0.5
v 0 3 -0.5
v 0.1 3.1 -0.5
v 0.1 3.5 -0.5
v 0.2 3.1 -0.5
v 0.2 3.4 -0.5
v 0.5 3 -0.5
v 0.5 3.1 -0.5
v 0.5 3.4 -0.5
v 0.5 3.5 -0.5
v -0.2 2.8 -0.6
v -0.2 3 -0.6
v -0.1 2.8 -0.6
v -0.1 3 -0.6
v 0 3.1 -0.6
v 0 3.4 -0.6
v 0.1 3.1 -0.6
v 0.1 3.4 -0.6
v 0.3 2.7 0
v 0.3 2.8 0
v 0.4 2.7 0
v 0.4 2.8 0
v 0.4 2.8 -0.3
v 0.4 3 -0.3
v 0.5 2.8 -0.3
v 0.5 3 -0.3
v 0 2 -0.4
v 0 2.1 -0.4
v 0.1 1.9 -0.4
v 0.1 2 -0.4
v 0.4 1.9 -0.4
v 0.4 2.1 -0.4
v -0.2 2.2 -0.5
v -0.2 2.3 -0.5
v -0.1 2.1 -0.5
v -0.1 2.2 -0.5
v 0.5 2.1 -0.5
v 0.5 2.3 -0.5
v -0.2 2.3 -0.6
v -0.2 2.5 -0.6
v 0.1 3.4 -0.6
v 0.1 3.5 -0.6
v 0.6 2.3 -0.6
v 0.6 2.5 -0.6
v 0.6 3.4 -0.6
v 0.6 3.5 -0.6
v -0.2 2.5 -0.7
v -0.2 2.7 -0.7
v 0 3.3 -0.7
v 0 3.4 -0.7
v 0.7 2.5 -0.7
v 0.7 2.7 -0.7
v 0.7 3.3 -0.7
v 0.7 3.4 -0.7
v -0.2 2.7 -0.8
v -0.2 2.9 -0.8
v 0 3.2 -0.8
v 0 3.3 -0.8
v 0.8 2.7 -0.8
v 0.8 2.9 -0.8
v 0.8 3.2 -0.8
v 0.8 3.3 -0.8
v -0.2 2.9 -0.9
v -0.2 3 -0.9
v -0.1 3 -0.9
v -0.1 3.1 -0.9
v 0 3.1 -0.9
v 0 3.2 -0.9
v 0.9 2.9 -0.9
v 0.9 3.2 -0.9
v 0.1 1.9 -0.3
v 0.4 1.9 -0.3
v 0.1 1.9 -0.4
v 0.4 1.9 -0.4
v 0 2 -0.2
v 0.4 2 -0.2
v 0.1 2 -0.3
v 0.4 2 -0.3
v 0 2 -0.4
v 0.1 2 -0.4
v 0.1 2.1 -0.1
v 0.5 2.1 -0.1
v 0.1 2.1 -0.2
v 0.4 2.1 -0.2
v -0.1 2.1 -0.3
v 0 2.1 -0.3
v 0 2.1 -0.4
v 0.4 2.1 -0.4
v -0.1 2.1 -0.5
v 0.5 2.1 -0.5
v -0.2 2.2 -0.4
v -0.1 2.2 -0.4
v -0.2 2.2 -0.5
v -0.1 2.2 -0.5
v 0.4 2.3 0.4
v 0.6 2.3 0.4
v 0.4 2.3 -0.1
v 0.5 2.3 -0.1
v -0.2 2.3 -0.5
v 0.5 2.3 -0.5
v -0.2 2.3 -0.6
v 0.6 2.3 -0.6
v 0.5 2.4 0.5
v 0.6 2.4 0.5
v 0.5 2.4 0.4
v 0.6 2.4 0.4
v 0.3 2.4 0.3
v 0.4 2.4 0.3
v 0.3 2.4 -0.1
v 0.4 2.4 -0.1
v 0.6 2.5 0.5
v 0.7 2.5 0.5
v -0.2 2.5 -0.6
v 0.6 2.5 -0.6
v -0.2 2.5 -0.7
v 0.7 2.5 -0.7
v 0.7 2.7 0.5
v 0.8 2.7 0.5
v -0.2 2.7 -0.7
v 0.7 2.7 -0.7
v -0.2 2.7 -0.8
v 0.8 2.7 -0.8
v 0.8 2.9 0.2
v 0.9 2.9 0.2
v -0.2 2.9 -0.8
v 0.8 2.9 -0.8
v -0.2 2.9 -0.9
v 0.9 2.9 -0.9
v 0.2 3.1 -0.4
v 0.5 3.1 -0.4
v 0.2 3.1 -0.5
v 0.5 3.1 -0.5
v 0.1 2.4 -0.1
v 0.3 2.4 -0.1
v 0.1 2.4 -0.2
v 0.3 2.4 -0.2
v 0 2.6 -0.2
v 0.3 2.6 -0.2
v 0 2.6 -0.3
v 0.3 2.6 -0.3
v -0.2 2.6 -0.4
v -0.1 2.6 -0.4
v -0.2 2.6 -0.5
v -0.1 2.6 -0.5
v 0.3 2.7 0
v 0.4 2.7 0
v -0.1 2.7 -0.3
v 0 2.7 -0.3
v 0.3 2.7 -0.3
v 0.4 2.7 -0.3
v -0.1 2.7 -0.4
v 0 2.7 -0.4
v 0.5 2.8 0.5
v 0.8 2.8 0.5
v 0.5 2.8 0.4
v 0.8 2.8 0.4
v 0.3 2.8 0.3
v 0.4 2.8 0.3
v 0.3 2.8 0
v 0.4 2.8 0
v 0 2.8 -0.3
v 0.4 2.8 -0.3
v 0.5 2.8 -0.3
v 0 2.8 -0.4
v 0.5 2.8 -0.4
v -0.2 2.8 -0.5
v -0.1 2.8 -0.5
v -0.2 2.8 -0.6
v -0.1 2.8 -0.6
v 0.4 2.9 0.4
v 0.8 2.9 0.4
v 0.5 2.9 0.3
v 0.8 2.9 0.3
v 0.4 2.9 0
v 0.5 2.9 0
v -0.1 2.9 -0.4
v 0 2.9 -0.4
v -0.1 2.9 -0.5
v 0 2.9 -0.5
v 0.5 3 0.3
v 0.8 3 0.3
v 0.8 3 0.2
v 0.9 3 0.2
v 0.5 3 0.1
v 0.9 3 0.1
v 0.4 3 0
v 0.5 3 0
v 0.4 3 -0.3
v 0.5 3 -0.3
v 0 3 -0.4
v 0.5 3 -0.4
v 0 3 -0.5
v 0.5 3 -0.5
v -0.2 3 -0.6
v -0.1 3 -0.6
v -0.2 3 -0.9
v -0.1 3 -0.9
v 0.5 3.1 0.1
v 0.9 3.1 0.1
v 0.6 3.1 0
v 0.9 3.1 0
v 0.5 3.1 -0.4
v 0.6 3.1 -0.4
v -0.1 3.1 -0.5
v 0.1 3.1 -0.5
v 0 3.1 -0.6
v 0.1 3.1 -0.6
v -0.1 3.1 -0.9
v 0 3.1 -0.9
v 0.6 3.2 0
v 0.9 3.2 0
v 0.6 3.2 -0.3
v 0.8 3.2 -0.3
v 0 3.2 -0.8
v 0.8 3.2 -0.8
v 0 3.2 -0.9
v 0.9 3.2 -0.9
v 0.7 3.3 -0.3
v 0.8 3.3 -0.3
v 0 3.3 -0.7
v 0.7 3.3 -0.7
v 0 3.3 -0.8
v 0.8 3.3 -0.8
v 0.6 3.4 -0.3
v 0.7 3.4 -0.3
v 0.2 3.4 -0.4
v 0.5 3.4 -0.4
v 0.6 3.4 -0.4
v 0.2 3.4 -0.5
v 0.5 3.4 -0.5
v 0 3.4 -0.6
v 0.1 3.4 -0.6
v 0.6 3.4 -0.6
v 0 3.4 -0.7
v 0.7 3.4 -0.7
v 0.5 3.5 -0.4
v 0.6 3.5 -0.4
v 0.1 3.5 -0.5
v 0.5 3.5 -0.5
v 0.1 3.5 -0.6
v 0.6 3.5 -0.6

# faces
f 3/1/1 2/1/1 1/1/1
f 5/1/1 4/1/1 3/1/1
f 7/1/1 3/1/1 1/1/1
f 7/1/1 6/1/1 5/1/1
f 7/1/1 5/1/1 3/1/1
f 8/1/1 6/1/1 7/1/1
f 9/1/1 6/1/1 8/1/1
f 11/1/1 9/1/1 8/1/1
f 11/1/1 10/1/1 9/1/1
f 12/1/1 10/1/1 11/1/1
f 13/1/1 10/1/1 12/1/1
f 15/1/1 13/1/1 12/1/1
f 15/1/1 14/1/1 13/1/1
f 16/1/1 14/1/1 15/1/1
f 19/1/1 18/1/1 17/1/1
f 20/1/1 18/1/1 19/1/1
f 21/1/1 19/1/1 17/1/1
f 23/1/1 21/1/1 17/1/1
f 23/1/1 22/1/1 21/1/1
f 24/1/1 22/1/1 23/1/1
f 25/1/1 22/1/1 24/1/1
f 27/1/1 25/1/1 24/1/1
f 27/1/1 26/1/1 25/1/1
f 28/1/1 26/1/1 27/1/1
f 29/1/1 26/1/1 28/1/1
f 31/1/1 29/1/1 28/1/1
f 31/1/1 30/1/1 29/1/1
f 32/1/1 30/1/1 31/1/1
f 35/1/1 34/1/1 33/1/1
f 36/1/1 34/1/1 35/1/1
f 37/1/1 35/1/1 33/1/1
f 38/1/1 35/1/1 37/1/1
f 41/1/1 40/1/1 39/1/1
f 42/1/1 40/1/1 41/1/1
f 45/1/1 44/1/1 43/1/1
f 46/1/1 44/1/1 45/1/1
f 49/1/1 48/1/1 47/1/1
f 50/1/1 48/1/1 49/1/1
f 51/1/1 49/1/1 47/1/1
f 52/1/1 49/1/1 51/1/1
f 53/1/1 51/1/1 47/1/1
f 54/1/1 51/1/1 53/1/1
f 57/1/1 56/1/1 55/1/1
f 58/1/1 56/1/1 57/1/1
f 61/1/1 60/1/1 59/1/1
f 62/1/1 60/1/1 61/1/1
f 65/1/1 64/1/1 63/1/1
f 66/1/1 65/1/1 63/1/1
f 67/1/1 65/1/1 66/1/1
f 70/1/1 69/1/1 68/1/1
f 71/1/1 69/1/1 70/1/1
f 75/1/1 73/1/1 72/1/1
f 75/1/1 74/1/1 73/1/1
f 77/1/1 75/1/1 72/1/1
f 77/1/1 76/1/1 75/1/1
f 78/1/1 76/1/1 77/1/1
f 79/1/1 77/1/1 72/1/1
f 80/1/1 77/1/1 79/1/1
f 83/1/1 82/1/1 81/1/1
f 84/1/1 82/1/1 83/1/1
f 87/1/1 83/1/1 81/1/1
f 88/1/1 86/1/1 85/1/1
f 89/1/1 86/1/1 88/1/1
f 90/1/1 87/1/1 81/1/1
f 90/1/1 88/1/1 87/1/1
f 90/1/1 89/1/1 88/1/1
f 91/1/1 89/1/1 90/1/1
f 92/1/1 89/1/1 91/1/1
f 93/1/1 89/1/1 92/1/1
f 96/1/1 95/1/1 94/1/1
f 97/1/1 95/1/1 96/1/1
f 102/1/1 101/1/1 100/1/1
f 103/1/1 101/1/1 102/1/1
f 104/1/1 101/1/1 103/1/1
f 105/1/1 99/1/1 98/1/1
f 106/1/1 99/1/1 105/1/1
f 108/1/1 104/1/1 103/1/1
f 108/1/1 107/1/1 106/1/1
f 108/1/1 106/1/1 105/1/1
f 108/1/1 105/1/1 104/1/1
f 109/1/1 107/1/1 108/1/1
f 110/1/1 107/1/1 109/1/1
f 113/1/1 112/1/1 111/1/1
f 114/1/1 112/1/1 113/1/1
f 117/1/1 116/1/1 115/1/1
f 118/1/1 116/1/1 117/1/1
f 119/1/1 116/1/1 118/1/1
f 120/1/1 116/1/1 119/1/1
f 121/1/2 122/1/2 124/1/2
f 123/1/2 124/1/2 125/1/2
f 124/1/2 122/1/2 126/1/2
f 125/1/2 124/1/2 126/1/2
f 127/1/2 128/1/2 129/1/2
f 129/1/2 128/1/2 130/1/2
f 131/1/2 132/1/2 134/1/2
f 133/1/2 134/1/2 135/1/2
f 134/1/2 132/1/2 136/1/2
f 135/1/2 134/1/2 136/1/2
f 137/1/2 138/1/2 139/1/2
f 139/1/2 138/1/2 140/1/2
f 141/1/2 142/1/2 143/1/2
f 143/1/2 142/1/2 144/1/2
f 145/1/2 146/1/2 147/1/2
f 147/1/2 146/1/2 148/1/2
f 149/1/2 150/1/2 151/1/2
f 151/1/2 150/1/2 152/1/2
f 152/1/2 150/1/2 153/1/2
f 153/1/2 150/1/2 154/1/2
f 154/1/2 150/1/2 155/1/2
f 155/1/2 150/1/2 156/1/2
f 154/1/2 155/1/2 157/1/2
f 157/1/2 155/1/2 158/1/2
f 159/1/2 160/1/2 161/1/2
f 161/1/2 160/1/2 162/1/2
f 163/1/2 164/1/2 165/1/2
f 165/1/2 164/1/2 166/1/2
f 166/1/2 164/1/2 167/1/2
f 167/1/2 164/1/2 168/1/2
f 168/1/2 164/1/2 169/1/2
f 169/1/2 164/1/2 170/1/2
f 173/1/3 172/1/3 171/1/3
f 174/1/3 172/1/3 173/1/3
f 175/1/3 172/1/3 174/1/3
f 176/1/3 172/1/3 175/1/3
f 177/1/3 172/1/3 176/1/3
f 178/1/3 172/1/3 177/1/3
f 181/1/3 180/1/3 179/1/3
f 182/1/3 180/1/3 181/1/3
f 183/1/3 181/1/3 179/1/3
f 184/1/3 181/1/3 183/1/3
f 185/1/3 180/1/3 182/1/3
f 186/1/3 180/1/3 185/1/3
f 189/1/3 188/1/3 187/1/3
f 190/1/3 188/1/3 189/1/3
f 193/1/3 192/1/3 191/1/3
f 194/1/3 192/1/3 193/1/3
f 197/1/3 196/1/3 195/1/3
f 198/1/3 196/1/3 197/1/3
f 201/1/3 200/1/3 199/1/3
f 202/1/3 200/1/3 201/1/3
f 205/1/3 204/1/3 203/1/3
f 206/1/3 204/1/3 205/1/3
f 209/1/3 208/1/3 207/1/3
f 210/1/3 208/1/3 209/1/3
f 213/1/3 212/1/3 211/1/3
f 214/1/3 213/1/3 211/1/3
f 215/1/3 213/1/3 214/1/3
f 216/1/3 214/1/3 211/1/3
f 217/1/3 214/1/3 216/1/3
f 220/1/3 219/1/3 218/1/3
f 221/1/3 219/1/3 220/1/3
f 222/1/3 219/1/3 221/1/3
f 223/1/3 219/1/3 222/1/3
f 224/1/3 220/1/3 218/1/3
f 225/1/3 220/1/3 224/1/3
f 228/1/3 227/1/3 226/1/3
f 229/1/3 227/1/3 228/1/3
f 230/1/3 227/1/3 229/1/3
f 234/1/3 231/1/3 230/1/3
f 234/1/3 230/1/3 229/1/3
f 235/1/3 231/1/3 234/1/3
f 236/1/3 233/1/3 232/1/3
f 237/1/3 233/1/3 236/1/3
f 238/1/3 231/1/3 235/1/3
f 239/1/3 231/1/3 238/1/3
f 242/1/3 241/1/3 240/1/3
f 243/1/3 241/1/3 242/1/3
f 244/1/3 242/1/3 240/1/3
f 245/1/3 242/1/3 244/1/3
f 248/1/3 247/1/3 246/1/3
f 249/1/3 247/1/3 248/1/3
f 252/1/3 251/1/3 250/1/3
f 253/1/3 251/1/3 252/1/3
f 254/1/3 251/1/3 253/1/3
f 258/1/3 255/1/3 254/1/3
f 258/1/3 254/1/3 253/1/3
f 259/1/3 255/1/3 258/1/3
f 260/1/3 257/1/3 256/1/3
f 261/1/3 257/1/3 260/1/3
f 263/1/3 262/1/3 261/1/3
f 263/1/3 261/1/3 260/1/3
f 264/1/3 262/1/3 263/1/3
f 265/1/3 262/1/3 264/1/3
f 268/1/3 267/1/3 266/1/3
f 269/1/3 267/1/3 268/1/3
f 272/1/3 271/1/3 270/1/3
f 273/1/3 271/1/3 272/1/3
f 274/1/3 271/1/3 273/1/3
f 276/1/3 274/1/3 273/1/3
f 276/1/3 275/1/3 274/1/3
f 277/1/3 275/1/3 276/1/3
f 278/1/3 276/1/3 273/1/3
f 279/1/3 276/1/3 278/1/3
f 280/1/3 275/1/3 277/1/3
f 281/1/3 275/1/3 280/1/3
f 284/1/3 283/1/3 282/1/3
f 285/1/3 283/1/3 284/1/3
f 288/1/3 287/1/3 286/1/3
f 289/1/3 287/1/3 288/1/3
f 290/1/4 291/1/4 292/1/4
f 292/1/4 291/1/4 293/1/4
f 294/1/4 295/1/4 296/1/4
f 296/1/4 295/1/4 297/1/4
f 298/1/4 299/1/4 301/1/4
f 300/1/4 301/1/4 302/1/4
f 301/1/4 299/1/4 303/1/4
f 302/1/4 301/1/4 303/1/4
f 304/1/4 305/1/4 307/1/4
f 306/1/4 307/1/4 308/1/4
f 307/1/4 305/1/4 309/1/4
f 308/1/4 307/1/4 309/1/4
f 310/1/4 311/1/4 314/1/4
f 314/1/4 311/1/4 315/1/4
f 312/1/4 313/1/4 316/1/4
f 316/1/4 313/1/4 317/1/4
f 318/1/4 319/1/4 322/1/4
f 322/1/4 319/1/4 323/1/4
f 320/1/4 321/1/4 324/1/4
f 324/1/4 321/1/4 325/1/4
f 326/1/4 327/1/4 330/1/4
f 330/1/4 327/1/4 331/1/4
f 328/1/4 329/1/4 332/1/4
f 332/1/4 329/1/4 333/1/4
f 334/1/4 335/1/4 336/1/4
f 336/1/4 337/1/4 338/1/4
f 334/1/4 336/1/4 340/1/4
f 338/1/4 339/1/4 340/1/4
f 336/1/4 338/1/4 340/1/4
f 340/1/4 339/1/4 341/1/4
f 344/1/5 343/1/5 342/1/5
f 345/1/5 343/1/5 344/1/5
f 348/1/5 347/1/5 346/1/5
f 349/1/5 347/1/5 348/1/5
f 350/1/5 348/1/5 346/1/5
f 351/1/5 348/1/5 350/1/5
f 354/1/5 353/1/5 352/1/5
f 355/1/5 353/1/5 354/1/5
f 358/1/5 357/1/5 356/1/5
f 359/1/5 353/1/5 355/1/5
f 360/1/5 358/1/5 356/1/5
f 360/1/5 359/1/5 358/1/5
f 361/1/5 353/1/5 359/1/5
f 361/1/5 359/1/5 360/1/5
f 364/1/5 363/1/5 362/1/5
f 365/1/5 363/1/5 364/1/5
f 368/1/5 367/1/5 366/1/5
f 369/1/5 367/1/5 368/1/5
f 371/1/5 367/1/5 369/1/5
f 372/1/5 371/1/5 370/1/5
f 373/1/5 367/1/5 371/1/5
f 373/1/5 371/1/5 372/1/5
f 376/1/5 375/1/5 374/1/5
f 377/1/5 375/1/5 376/1/5
f 380/1/5 379/1/5 378/1/5
f 381/1/5 379/1/5 380/1/5
f 385/1/5 383/1/5 382/1/5
f 386/1/5 385/1/5 384/1/5
f 387/1/5 383/1/5 385/1/5
f 387/1/5 385/1/5 386/1/5
f 391/1/5 389/1/5 388/1/5
f 392/1/5 391/1/5 390/1/5
f 393/1/5 389/1/5 391/1/5
f 393/1/5 391/1/5 392/1/5
f 397/1/5 395/1/5 394/1/5
f 398/1/5 397/1/5 396/1/5
f 399/1/5 395/1/5 397/1/5
f 399/1/5 397/1/5 398/1/5
f 402/1/5 401/1/5 400/1/5
f 403/1/5 401/1/5 402/1/5
f 404/1/6 405/1/6 406/1/6
f 406/1/6 405/1/6 407/1/6
f 408/1/6 409/1/6 410/1/6
f 410/1/6 409/1/6 411/1/6
f 412/1/6 413/1/6 414/1/6
f 414/1/6 413/1/6 415/1/6
f 416/1/6 417/1/6 420/1/6
f 420/1/6 417/1/6 421/1/6
f 418/1/6 419/1/6 422/1/6
f 422/1/6 419/1/6 423/1/6
f 424/1/6 425/1/6 426/1/6
f 426/1/6 425/1/6 427/1/6
f 428/1/6 429/1/6 430/1/6
f 430/1/6 429/1/6 431/1/6
f 432/1/6 433/1/6 435/1/6
f 433/1/6 434/1/6 435/1/6
f 435/1/6 434/1/6 436/1/6
f 437/1/6 438/1/6 439/1/6
f 439/1/6 438/1/6 440/1/6
f 441/1/6 442/1/6 443/1/6
f 443/1/6 442/1/6 444/1/6
f 441/1/6 443/1/6 445/1/6
f 445/1/6 443/1/6 446/1/6
f 447/1/6 448/1/6 449/1/6
f 449/1/6 448/1/6 450/1/6
f 451/1/6 452/1/6 453/1/6
f 451/1/6 453/1/6 455/1/6
f 453/1/6 454/1/6 455/1/6
f 455/1/6 454/1/6 456/1/6
f 457/1/6 458/1/6 459/1/6
f 459/1/6 458/1/6 460/1/6
f 461/1/6 462/1/6 463/1/6
f 463/1/6 462/1/6 464/1/6
f 465/1/6 466/1/6 467/1/6
f 467/1/6 466/1/6 468/1/6
f 469/1/6 470/1/6 471/1/6
f 471/1/6 470/1/6 472/1/6
f 469/1/6 471/1/6 473/1/6
f 473/1/6 471/1/6 474/1/6
f 475/1/6 476/1/6 477/1/6
f 477/1/6 476/1/6 478/1/6
f 475/1/6 477/1/6 479/1/6
f 479/1/6 477/1/6 480/1/6
f 481/1/6 482/1/6 483/1/6
f 483/1/6 482/1/6 484/1/6
f 484/1/6 482/1/6 486/1/6
f 485/1/6 486/1/6 487/1/6
f 486/1/6 482/1/6 488/1/6
f 487/1/6 486/1/6 488/1/6
f 489/1/6 490/1/6 492/1/6
f 491/1/6 492/1/6 493/1/6
f 492/1/6 490/1/6 494/1/6
f 493/1/6 492/1/6 494/1/6
f 495/1/6 496/1/6 499/1/6
f 497/1/6 498/1/6 500/1/6
f 500/1/6 498/1/6 501/1/6
f 499/1/6 496/1/6 504/1/6
f 502/1/6 503/1/6 505/1/6
f 503/1/6 504/1/6 505/1/6
f 504/1/6 496/1/6 506/1/6
f 505/1/6 504/1/6 506/1/6
f 507/1/6 508/1/6 510/1/6
f 509/1/6 510/1/6 511/1/6
f 510/1/6 508/1/6 512/1/6
f 511/1/6 510/1/6 512/1/6
